<?xml version="1.0" encoding="UTF-8"?>
<!DOCTYPE svg PUBLIC "-//W3C//DTD SVG 1.1//EN" "http://www.w3.org/Graphics/SVG/1.1/DTD/svg11.dtd">
<!-- Creator: CorelDRAW X8 -->
<svg xmlns="http://www.w3.org/2000/svg" xml:space="preserve" width="24in" height="24in" version="1.1" style="shape-rendering:geometricPrecision; text-rendering:geometricPrecision; image-rendering:optimizeQuality; fill-rule:evenodd; clip-rule:evenodd"
viewBox="0 0 24000 24000"
 xmlns:xlink="http://www.w3.org/1999/xlink">
 <defs>
  <style type="text/css">
   <![CDATA[
    .str0 {stroke:black;stroke-width:3}
    .fil0 {fill:none}
   ]]>
  </style>
 </defs>
 <g id="Layer_x0020_1">
  <metadata id="CorelCorpID_0Corel-Layer"/>
  <path class="fil0 str0" d="M14968 4930c-433,54 -834,194 -998,595 -54,134 -94,288 -78,450 50,522 565,759 622,1486 48,610 -362,1096 -397,1708 -42,726 633,1092 1132,953 484,-135 817,-605 986,-1125 166,-507 326,-1146 420,-1691 104,-596 138,-1333 -165,-1803 -114,-177 -337,-364 -588,-467 -279,-115 -613,-147 -934,-106z"/>
  <path class="fil0 str0" d="M13484 3814c-618,170 -308,1428 314,1288 343,-77 456,-581 242,-982 -59,-112 -177,-236 -298,-286 -80,-33 -169,-45 -258,-20z"/>
  <path class="fil0 str0" d="M14658 3636c-497,82 -432,1078 68,994 207,-35 340,-290 331,-544 -9,-227 -164,-489 -399,-450z"/>
  <path class="fil0 str0" d="M15484 3743c-174,45 -305,255 -307,482 -3,586 669,524 680,-69 4,-220 -137,-473 -373,-413z"/>
  <path class="fil0 str0" d="M16275 4021c-161,46 -293,226 -312,427 -52,561 595,504 651,-30 26,-250 -125,-457 -339,-397z"/>
  <path class="fil0 str0" d="M16886 4571c-405,101 -399,807 0,689 136,-40 255,-189 279,-361 27,-194 -82,-377 -279,-328z"/>
 </g>
</svg>
